<?xml version="1.0" encoding="iso-8859-1"?>
<!-- Uploaded to: SVG Repo, www.svgrepo.com, Generator: SVG Repo Mixer Tools -->
<svg fill="#000000" height="800px" width="800px" version="1.1" id="Layer_1" xmlns="http://www.w3.org/2000/svg" xmlns:xlink="http://www.w3.org/1999/xlink" 
	 viewBox="0 0 512 512" xml:space="preserve">
<g>
	<g>
		<g>
			<path d="M456.326,119.157c-1.247-6.573-7.575-10.898-14.16-9.646c-6.574,1.247-10.892,7.587-9.646,14.16
				c2.661,14.031-0.053,28.341-7.644,40.298c-3.585,5.649-1.912,13.135,3.738,16.722c2.012,1.278,4.26,1.889,6.481,1.889
				c4.01-0.001,7.933-1.991,10.241-5.626C456.234,159.783,460.137,139.256,456.326,119.157z"/>
			<path d="M434.992,95.706c4.811-4.65,4.941-12.32,0.291-17.131c-0.308-0.319-0.619-0.634-0.933-0.949
				c-4.736-4.724-12.407-4.719-17.135,0.019c-4.725,4.737-4.718,12.407,0.019,17.133c0.212,0.21,0.419,0.422,0.625,0.635
				c2.377,2.459,5.543,3.695,8.712,3.695C429.604,99.111,432.64,97.98,434.992,95.706z"/>
			<path d="M163.449,347.559c-21.676,17.738-39.68,32.563-56.665,46.655c-5.149,4.273-5.86,11.911-1.587,17.061
				c2.396,2.887,5.849,4.38,9.33,4.38c2.725,0,5.468-0.916,7.73-2.793c16.941-14.057,34.907-28.849,56.536-46.551
				c5.178-4.238,5.94-11.871,1.703-17.049C176.26,344.083,168.629,343.321,163.449,347.559z"/>
			<path d="M191.902,324.314c-5.184,4.229-5.96,11.862-1.73,17.046c2.395,2.937,5.881,4.458,9.396,4.458
				c2.692,0,5.402-0.893,7.651-2.727l4.328-3.53c5.187-4.227,5.963-11.86,1.736-17.045c-4.227-5.185-11.861-5.963-17.045-1.737
				L191.902,324.314z"/>
			<path d="M460.432,239.843c4.288-3.347,8.39-6.968,12.276-10.854C498.045,203.651,512,169.967,512,134.139
				s-13.954-69.512-39.291-94.85C447.375,13.955,413.691,0.003,377.862,0c-0.001,0-0.002,0-0.002,0
				c-35.831,0-69.517,13.953-94.851,39.288c-3.887,3.888-7.501,7.995-10.848,12.283l-9.05-9.05c-4.732-4.731-12.401-4.731-17.135,0
				c-4.731,4.731-4.731,12.402,0,17.135l12.796,12.795c-10.244,19.789-15.496,42.002-14.996,64.631
				C226.872,157.369,71.417,347.709,32.011,394.523c-16.889,20.063-16.63,48.677,0.017,68.315L3.548,491.317
				c-4.731,4.731-4.731,12.403,0,17.134c2.366,2.366,5.465,3.549,8.567,3.549c3.102,0,6.201-1.182,8.568-3.549l28.482-28.482
				c9.859,8.36,21.975,12.6,34.144,12.6c12.071,0,24.187-4.16,34.177-12.571c46.872-39.455,237.426-195.099,257.443-211.774
				c0.978,0.022,1.955,0.042,2.931,0.042c21.613,0,42.759-5.242,61.688-15.039l12.797,12.797c2.366,2.366,5.466,3.549,8.567,3.549
				s6.201-1.182,8.567-3.549c4.731-4.731,4.731-12.402,0-17.135L460.432,239.843z M101.881,461.46
				c-11.522,9.701-28.242,8.988-38.889-1.649l-5.366-5.366c-0.012-0.012-0.022-0.025-0.034-0.037s-0.025-0.022-0.037-0.034
				l-5.366-5.366c-10.635-10.645-11.34-27.36-1.64-38.881c39.53-46.96,137.017-166.569,146.968-178.752l83.116,83.117
				C268.509,324.394,148.901,421.88,101.881,461.46z M342.603,263.576c-13.128,10.87-27.275,22.518-43.12,35.499l-86.55-86.551
				c12.897-15.747,24.541-29.895,35.494-43.121l-0.001-0.023c6.081,22.378,17.919,42.944,34.583,59.609
				c16.666,16.666,37.232,28.503,59.605,34.583L342.603,263.576z M371.431,243.846c-26.888-1.547-52.206-12.909-71.289-31.992
				c-19.083-19.082-30.445-44.399-31.993-71.301c-1.012-17.277,2.095-34.356,8.803-49.923l144.416,144.416
				C405.802,241.755,388.722,244.862,371.431,243.846z M443.137,222.548L289.45,68.862c3.231-4.378,6.795-8.543,10.693-12.439
				c20.76-20.76,48.361-32.192,77.719-32.19c29.356,0.001,56.956,11.434,77.713,32.192c42.853,42.853,42.853,112.578,0,155.432
				C451.679,215.752,447.516,219.316,443.137,222.548z"/>
		</g>
	</g>
</g>
</svg>