<svg version="1.2" xmlns="http://www.w3.org/2000/svg" viewBox="0 0 200 113" width="9rem" height="113">
	<title>openfeedback-black-orange</title>
	<style>
		.s0 { fill: #cae9f7 } 
		.s1 { fill: #ffffff } 
	</style>
	<path class="s0" d="m0 50c0-1.6 0.3-3 1-4.3 0.6-1.2 1.4-2.2 2.6-2.9 1.1-0.6 2.3-1 3.8-1 2.2 0 4 0.8 5.3 2.3 1.4 1.5 2 3.5 2 6.1v0.2c0 1.5-0.2 2.9-0.8 4.2q-1 1.9-2.7 2.9c-1.1 0.7-2.3 1-3.8 1-2.2 0-3.9-0.7-5.3-2.2-1.3-1.5-2-3.6-2-6zm2.8 0.3c0 1.8 0.4 3.2 1.2 4.3 0.9 1 1.9 1.6 3.3 1.6 1.4 0 2.5-0.5 3.3-1.6 0.8-1.1 1.2-2.6 1.2-4.6 0-1.8-0.4-3.3-1.3-4.3-0.8-1.1-1.9-1.7-3.3-1.7-1.4 0-2.4 0.6-3.3 1.7-0.7 1-1.1 2.5-1.1 4.6zm28.9 0c0 2.5-0.5 4.5-1.6 5.9-1.2 1.5-2.6 2.3-4.6 2.3-1.9 0-3.5-0.6-4.6-1.8v7.7h-2.8v-22.4h2.5l0.2 1.9q1.7-2.1 4.7-2.1c2 0 3.5 0.7 4.7 2.1 1.1 1.5 1.6 3.5 1.6 6.2zm-2.7-0.4c0-1.8-0.3-3.2-1.1-4.3-0.8-1-1.9-1.5-3.3-1.5-1.6 0-2.8 0.7-3.7 2.1v7.7c0.8 1.5 2.1 2.2 3.7 2.2q2 0 3.2-1.6c0.8-0.9 1.2-2.5 1.2-4.6zm12.9 8.5c-2.2 0-3.9-0.7-5.3-2.2q-2.1-2.2-2.1-5.8v-0.5c0-1.6 0.3-3.1 0.9-4.3 0.6-1.2 1.5-2.2 2.5-2.9 1.1-0.7 2.3-1.1 3.6-1.1 2.1 0 3.7 0.7 4.9 2.1 1.1 1.4 1.7 3.4 1.7 5.9v1.2h-10.9c0 1.5 0.5 2.9 1.4 3.8 0.9 1 2 1.5 3.4 1.5 1 0 1.8-0.2 2.4-0.6 0.7-0.5 1.3-1 1.8-1.6l1.6 1.3c-1.2 2.2-3.2 3.2-5.9 3.2zm-0.3-14.4c-1.2 0-2 0.4-2.8 1.2-0.8 0.8-1.2 1.9-1.4 3.4h8.1v-0.2c-0.1-1.4-0.5-2.4-1.1-3.2-0.7-0.9-1.6-1.2-2.8-1.2zm12.4-2l0.1 2c1.2-1.6 2.9-2.4 4.8-2.4 3.4 0 5.2 1.9 5.2 5.8v10.6h-2.8v-10.5q0-1.7-0.8-2.7c-0.5-0.5-1.3-0.8-2.5-0.8-0.8 0-1.6 0.2-2.3 0.7-0.7 0.4-1.2 1.1-1.6 1.9v11.5h-2.8v-16.1z"/>
	<path class="s1" d="m69.7 58.2v-14h-2.6v-2.1h2.6v-1.7c0-1.7 0.4-3 1.4-4 0.9-1 2.2-1.4 3.9-1.4 0.6 0 1.3 0.1 1.9 0.3l-0.2 2.2c-0.4-0.1-0.9-0.1-1.5-0.1q-1.3 0-2.1 0.7c-0.5 0.6-0.7 1.3-0.7 2.3v1.7h3.4v2.1h-3.4v13.9zm15.7 0.3c-2.2 0-4-0.7-5.4-2.2q-2.1-2.2-2.1-5.8v-0.5c0-1.6 0.3-3 0.9-4.3 0.6-1.2 1.5-2.2 2.5-2.9 1.2-0.7 2.3-1.1 3.6-1.1 2.1 0 3.8 0.7 4.9 2.1 1.1 1.4 1.7 3.4 1.7 6v1.1h-10.9c0 1.6 0.6 2.9 1.4 3.8 0.9 1 2 1.5 3.4 1.5 1 0 1.9-0.2 2.5-0.6 0.7-0.4 1.3-1 1.7-1.6l1.7 1.3c-1.2 2.2-3.2 3.2-5.9 3.2zm-0.4-14.4c-1.1 0-2 0.4-2.8 1.2-0.8 0.8-1.2 1.9-1.4 3.4h8.1v-0.2c-0.1-1.4-0.4-2.4-1.1-3.2-0.8-0.9-1.7-1.2-2.8-1.2zm16.5 14.4c-2.2 0-3.9-0.7-5.3-2.2q-2.1-2.2-2.1-5.8v-0.5c0-1.6 0.2-3 0.8-4.3 0.7-1.2 1.5-2.2 2.6-2.9 1.1-0.7 2.2-1.1 3.5-1.1 2.1 0 3.8 0.7 4.9 2.1 1.2 1.4 1.8 3.4 1.8 6v1.1h-10.9c0 1.6 0.5 2.9 1.4 3.8 0.8 1 2 1.5 3.4 1.5 0.9 0 1.8-0.2 2.4-0.6 0.7-0.4 1.3-1 1.8-1.6l1.6 1.3c-1.2 2.2-3.2 3.2-5.9 3.2zm-0.4-14.4c-1.1 0-2 0.4-2.8 1.2-0.7 0.8-1.2 1.9-1.3 3.4h8.1v-0.2c-0.1-1.4-0.5-2.4-1.2-3.2-0.7-0.9-1.6-1.2-2.8-1.2zm9.2 5.9c0-2.4 0.6-4.4 1.7-5.9 1.2-1.5 2.7-2.3 4.7-2.3 1.9 0 3.4 0.6 4.4 1.9v-8.4h2.8v22.9h-2.5l-0.2-1.7c-1.1 1.3-2.6 2-4.6 2-1.9 0-3.4-0.8-4.6-2.3-1.1-1.6-1.7-3.5-1.7-6zm2.8 0.3c0 1.9 0.3 3.3 1.1 4.3q1.2 1.6 3.2 1.6c1.7 0 3-0.8 3.8-2.4v-7.4c-0.8-1.5-2.1-2.3-3.8-2.3-1.4 0-2.5 0.6-3.2 1.6-0.8 1-1.1 2.5-1.1 4.6zm28.8 0c0 2.5-0.6 4.5-1.7 6-1.1 1.5-2.6 2.2-4.5 2.2-2 0-3.6-0.7-4.7-2.1l-0.2 1.8h-2.6v-23h2.8v8.6c1.2-1.4 2.7-2.1 4.7-2.1 1.9 0 3.4 0.7 4.6 2.2 1.1 1.5 1.6 3.5 1.6 6.1v0.3zm-2.8-0.3c0-1.9-0.3-3.3-1-4.4q-1-1.5-3.1-1.5c-1.9 0-3.2 0.8-4 2.5v7c0.9 1.6 2.2 2.5 4 2.5 1.3 0 2.3-0.5 3-1.6 0.7-1 1.1-2.4 1.1-4.5zm16.3 8.2c-0.2-0.4-0.3-0.9-0.4-1.7-1.3 1.3-2.8 2-4.6 2q-2.4 0-3.9-1.3c-1.1-0.8-1.5-2-1.5-3.4 0-1.6 0.6-2.9 1.9-3.9 1.3-1 3.1-1.4 5.4-1.4h2.7v-1.3c0-1-0.2-1.7-0.9-2.3-0.6-0.6-1.4-0.8-2.5-0.8-0.9 0-1.8 0.2-2.4 0.7-0.7 0.6-1 1.2-1 1.9h-2.8c0-0.8 0.3-1.6 0.9-2.4 0.6-0.8 1.4-1.3 2.4-1.8 0.9-0.4 2-0.7 3.2-0.7 1.8 0 3.3 0.4 4.3 1.4 1.1 0.9 1.6 2.2 1.7 3.8v7.4c0 1.5 0.2 2.7 0.5 3.6v0.3h-3zm-4.6-2.1c0.9 0 1.7-0.3 2.5-0.7 0.8-0.5 1.3-1.1 1.6-1.8v-3.3h-2.2c-3.4 0-5 1-5 3 0 0.9 0.3 1.6 0.9 2 0.6 0.5 1.3 0.8 2.2 0.8zm17.7 0.2c1 0 1.9-0.3 2.6-0.9 0.8-0.6 1.2-1.3 1.3-2.3h2.6c-0.1 1-0.4 1.8-1 2.6-0.6 0.9-1.4 1.5-2.3 2q-1.5 0.8-3.2 0.8c-2.2 0-3.9-0.7-5.2-2.2-1.3-1.4-1.9-3.4-1.9-6v-0.4c0-1.6 0.2-3 0.9-4.2 0.6-1.2 1.3-2.2 2.4-2.9 1-0.7 2.3-1 3.8-1 1.9 0 3.3 0.5 4.6 1.6 1.2 1.1 1.8 2.6 1.9 4.2h-2.6c-0.1-1-0.5-1.9-1.3-2.5q-1-1.1-2.6-1.1c-1.4 0-2.5 0.6-3.2 1.5-0.8 1.1-1.1 2.5-1.1 4.4v0.5c0 1.8 0.3 3.3 1.1 4.3 0.7 1 1.7 1.6 3.2 1.6zm14-5.6l-1.8 1.8v5.7h-2.8v-23h2.8v13.9l1.5-1.7 5.1-5.4h3.3l-6.3 6.8 7 9.4h-3.2z"/>
	<path class="s1" d="m22.2 78l-2.8-2.1 9.7-12.9h51.9c39.8 0 85.1 0 97.2 0h14.7c2 0 3.6-1.7 3.6-3.7v-4.2h3.5v4.2c0 4-3.2 7.2-7.1 7.2h-14.7c-12.1 0-57.3 0-97.2 0h-50.1z"/>
</svg>